<svg xmlns="http://www.w3.org/2000/svg" viewBox="0 0 542.69 100.97"><defs><style>.cls-1{fill:#002d74;}.cls-2{fill:#c30d23;}</style></defs><title>资源 2</title><g id="图层_2" data-name="图层 2"><g id="图层_1-2" data-name="图层 1"><path class="cls-1" d="M486.18,30.61v-16h4.57c2.87,0,4.21.18,4,.53v1.07a11.77,11.77,0,0,0-.54,3.75V30.61h4.3v7h-4.3V74.2h-8.07V37.57h-7v-7Zm27.71-11.49V13.77h4c3.23,0,4.66.18,4.31.53.17.18.17.45,0,.8-.19.72-.37,1.43-.54,2.14v1.88h5.11a7.38,7.38,0,0,0-1.08-1.88,11.39,11.39,0,0,1-1.07-1.6l7.26-3.48c2.51,4.11,3.77,6.33,3.77,6.69h4.58V25H521.7v2.94h14.8v24.6h-2.69V55h8.88v5.61h-8.88v9.36q1.61,6.15-14.26,5.62a12.4,12.4,0,0,0-2.16-8.29q9.15.54,7.81-2.68v-4H510.13c.53.72,1.52,2.32,3,4.82a21.46,21.46,0,0,0,1.34,2.4L507.17,71a64.4,64.4,0,0,0-4.85-7.75l5.92-2.68h-11.3V55H525.2V51.74h2.69V48.53H521.7v4h-7.81v-4h-5.65v3.74h-7.53V27.94h13.18V25H498V19.12Zm0,13.9h-5.65V36h5.65Zm0,10.7V40.78h-5.65v2.94Zm14-7.76V33H521.7V36Zm0,4.82H521.7v2.94h6.19Z"/><path class="cls-1" d="M415.79,25.8h19.37V13.23H444v3.21h22.07v6.69H444V25.8h27.72a98.68,98.68,0,0,1-2.42,12.57l-8.34-.8,1.07-4.82H444.85v3.48l13.73-1.34.53,4.82a44.07,44.07,0,0,0,7,3.2q-1.08,8.3-8.34,8H441.35c-3.41.18-5-1.61-4.84-5.35V43.18l-10,1.07L426,37.83l10.5-.8V32.75H424.13V46.39q-.27,16.85-6.19,28.08a30.55,30.55,0,0,0-8.07-3.21l.27-.54q5.64-10.42,5.65-24.33Zm4.57,44.39.81-.27q9.42-2.4,9.42-12.83v-4h24.76v12c-.36,1.6.35,2.32,2.15,2.14H461q3.22,0,3.23-6.42a83.19,83.19,0,0,0,8.61,2.41q-.81,12-7.81,11.23H453.19q-7,.25-6.72-6.15V59.76h-7.54q-.81,7.49-4,10.7a24.75,24.75,0,0,1-8.61,5.61A46.25,46.25,0,0,0,420.36,70.19Zm25.84-25.4H454q3,0,3.23-3.48l-12.38,1.07C444.67,44.16,445.12,45,446.2,44.79Z"/><path class="cls-1" d="M399.54,47q0,13.07-7.53,20.94T371.6,75.82q-13.08,0-20.66-8T343.36,47q0-13,7.52-20.94t20.72-8q13.2,0,20.72,8.13Q399.54,34.15,399.54,47Zm-14.74.05q0-16.7-13.2-16.7t-13.29,16.7q0,16.71,13.29,16.7T384.8,47.06Z"/><path class="cls-1" d="M341.71,46.55q0,9.59-3,16.18A23.42,23.42,0,0,1,318,76.13q-10,0-15.17-8.45h-.52v6.8H288.52V.37h14.33V26.76q6-8.67,16.18-8.66h.11q11.24.11,17.31,9Q341.72,34.8,341.71,46.55ZM327,47.42q0-16.85-12.47-16.85-12.17,0-12.17,17.67,0,7.41,3.82,11.82a10.81,10.81,0,0,0,8.45,4A10.54,10.54,0,0,0,323.05,60Q327,55.34,327,47.42Z"/><path class="cls-1" d="M284.09,47q0,13.07-7.53,20.94t-20.41,7.87q-13.08,0-20.66-8T227.91,47q0-13,7.52-20.94t20.72-8q13.2,0,20.72,8.13Q284.09,34.15,284.09,47Zm-14.74.05q0-16.7-13.2-16.7t-13.29,16.7q0,16.71,13.29,16.7T269.35,47.06Z"/><path class="cls-1" d="M227.91,33a28.07,28.07,0,0,0-4-.31q-13.3,0-13.3,13.2V74.48H196.06V19.54h13.71v4.23a10.37,10.37,0,0,0,.1,2.37,1.18,1.18,0,0,1,.31-.21,31.27,31.27,0,0,1,6.39-5.57A18.81,18.81,0,0,1,226,18.3h2Z"/><path class="cls-1" d="M192.14,50.88H154.31q.51,6.75,4.33,10.43a11.36,11.36,0,0,0,8,3.07A12.1,12.1,0,0,0,173,62.73a7.62,7.62,0,0,0,3.61-4.43h14.84a23.61,23.61,0,0,1-8.86,12.94,25.39,25.39,0,0,1-15.16,4.58q-27.53,0-27.52-29.94,0-12.66,7-20.22t19.53-7.56Q192.14,18.1,192.14,50.88ZM177.3,41.7a13.64,13.64,0,0,0-3.76-8.76,10.37,10.37,0,0,0-7.48-3.19,9.7,9.7,0,0,0-7.11,3,15,15,0,0,0-4.12,9Z"/><path class="cls-1" d="M136.89,77.57a21.06,21.06,0,0,1-8.54,17.53Q120.54,101,109.52,101q-10.8,0-18.21-5.77-8.24-6.49-8.23-17.73H96.55a10,10,0,0,0,3.7,8.25,12.79,12.79,0,0,0,8.33,2.68A15.07,15.07,0,0,0,118,85.31a11.18,11.18,0,0,0,4.42-9.18V67.68a11.28,11.28,0,0,1-5.67,5.77,20.64,20.64,0,0,1-9.38,2.06,24.22,24.22,0,0,1-14.84-4.74,21.32,21.32,0,0,1-8.56-15A92.63,92.63,0,0,1,83.08,45a31.84,31.84,0,0,1,3.1-13.71,22.48,22.48,0,0,1,8.73-9.79,22.79,22.79,0,0,1,12.15-3.61q10.13,0,15.19,8.45a.31.31,0,0,1,.21.11V19.54h14.43Zm-14-29.27q0-17.73-12.32-17.73T98.13,47.47q0,8,3.93,12.58a10.6,10.6,0,0,0,8.49,4.12,10.91,10.91,0,0,0,8.49-4Q122.87,55.73,122.87,48.3Z"/><rect class="cls-1" x="63.7" y="19.54" width="14.53" height="54.94"/><circle class="cls-2" cx="70.97" cy="7.04" r="7.04"/><path class="cls-1" d="M60.2,13.46H37.83v61H22.27v-61H0V.37H60.2Z"/></g></g></svg>