<svg xmlns="http://www.w3.org/2000/svg" viewBox="0 0 399.54 100.97"><defs><style>.cls-1{fill:#002d74;}.cls-2{fill:#c30d23;}</style></defs><title>资源 1</title><g id="图层_2" data-name="图层 2"><g id="图层_1-2" data-name="图层 1"><path class="cls-1" d="M399.54,47q0,13.07-7.53,20.94T371.6,75.82q-13.08,0-20.66-8T343.36,47q0-13,7.52-20.94t20.72-8q13.2,0,20.72,8.13Q399.54,34.15,399.54,47Zm-14.74.05q0-16.7-13.2-16.7t-13.29,16.7q0,16.71,13.29,16.7T384.8,47.06Z"/><path class="cls-1" d="M341.71,46.55q0,9.59-3,16.18A23.42,23.42,0,0,1,318,76.13q-10,0-15.17-8.45h-.52v6.8H288.52V.37h14.33V26.76q6-8.67,16.18-8.66h.11q11.24.11,17.31,9Q341.72,34.8,341.71,46.55ZM327,47.42q0-16.85-12.47-16.85-12.17,0-12.17,17.67,0,7.41,3.82,11.82a10.81,10.81,0,0,0,8.45,4A10.54,10.54,0,0,0,323.05,60Q327,55.34,327,47.42Z"/><path class="cls-1" d="M284.09,47q0,13.07-7.53,20.94t-20.41,7.87q-13.08,0-20.66-8T227.91,47q0-13,7.52-20.94t20.72-8q13.2,0,20.72,8.13Q284.09,34.15,284.09,47Zm-14.74.05q0-16.7-13.2-16.7t-13.29,16.7q0,16.71,13.29,16.7T269.35,47.06Z"/><path class="cls-1" d="M227.91,33a28.07,28.07,0,0,0-4-.31q-13.3,0-13.3,13.2V74.48H196.06V19.54h13.71v4.23a10.37,10.37,0,0,0,.1,2.37,1.18,1.18,0,0,1,.31-.21,31.27,31.27,0,0,1,6.39-5.57A18.81,18.81,0,0,1,226,18.3h2Z"/><path class="cls-1" d="M192.14,50.88H154.31q.51,6.75,4.33,10.43a11.36,11.36,0,0,0,8,3.07A12.1,12.1,0,0,0,173,62.73a7.62,7.62,0,0,0,3.61-4.43h14.84a23.61,23.61,0,0,1-8.86,12.94,25.39,25.39,0,0,1-15.16,4.58q-27.53,0-27.52-29.94,0-12.66,7-20.22t19.53-7.56Q192.14,18.1,192.14,50.88ZM177.3,41.7a13.64,13.64,0,0,0-3.76-8.76,10.37,10.37,0,0,0-7.48-3.19,9.7,9.7,0,0,0-7.11,3,15,15,0,0,0-4.12,9Z"/><path class="cls-1" d="M136.89,77.57a21.06,21.06,0,0,1-8.54,17.53Q120.54,101,109.52,101q-10.8,0-18.21-5.77-8.24-6.49-8.23-17.73H96.55a10,10,0,0,0,3.7,8.25,12.79,12.79,0,0,0,8.33,2.68A15.07,15.07,0,0,0,118,85.31a11.18,11.18,0,0,0,4.42-9.18V67.68a11.28,11.28,0,0,1-5.67,5.77,20.64,20.64,0,0,1-9.38,2.06,24.22,24.22,0,0,1-14.84-4.74,21.32,21.32,0,0,1-8.56-15A92.63,92.63,0,0,1,83.08,45a31.84,31.84,0,0,1,3.1-13.71,22.48,22.48,0,0,1,8.73-9.79,22.79,22.79,0,0,1,12.15-3.61q10.13,0,15.19,8.45a.31.31,0,0,1,.21.11V19.54h14.43Zm-14-29.27q0-17.73-12.32-17.73T98.13,47.47q0,8,3.93,12.58a10.6,10.6,0,0,0,8.49,4.12,10.91,10.91,0,0,0,8.49-4Q122.87,55.73,122.87,48.3Z"/><rect class="cls-1" x="63.7" y="19.54" width="14.53" height="54.94"/><circle class="cls-2" cx="70.97" cy="7.04" r="7.04"/><path class="cls-1" d="M60.2,13.46H37.83v61H22.27v-61H0V.37H60.2Z"/></g></g></svg>